<svg width="97" height="104" viewBox="0 0 97 104" fill="none" xmlns="http://www.w3.org/2000/svg">
<g clip-path="url(#clip0_35_225)">
<rect x="48.7112" y="11" width="8.472" height="4.73" transform="rotate(30 48.7112 11)" fill="#DCBCFA"/>
<path d="M6.68713 101.844L7.60473 103.974L9.81901 104.664L7.68898 105.582L6.99905 107.796L6.08145 105.666L3.86717 104.976L5.9972 104.058L6.68713 101.844Z" fill="#C9FCBE" fill-opacity="0.75"/>
<path d="M73.1058 52.4576L78.7183 45.9077L81.5844 54.0432L73.1058 52.4576Z" fill="#FE5F5F" fill-opacity="0.65"/>
<rect x="96.7112" y="108" width="14.472" height="4.73" transform="rotate(-108 96.7112 108)" fill="#F62584" fill-opacity="0.75"/>
<rect x="85.7112" y="35" width="18.472" height="3.73" transform="rotate(-126 85.7112 35)" fill="#755FFE" fill-opacity="0.85"/>
<rect x="7.79514" y="77.6484" width="18.472" height="3" transform="rotate(-68.0076 7.79514 77.6484)" fill="#E85FFE" fill-opacity="0.85"/>
<circle cx="66.9512" cy="27.24" r="3.24" fill="#480CA7" fill-opacity="0.75"/>
<circle cx="56.9512" cy="18.24" r="1.24" fill="#FC9E1C" fill-opacity="0.45"/>
<circle cx="58.4512" cy="44.74" r="2.74" fill="#4BC8EF"/>
<path d="M38.2012 37.6872L46.8268 37.6872L42.514 45.1572L38.2012 37.6872Z" fill="#755FFE" fill-opacity="0.65"/>
<path d="M54.5215 53.2889L58.2058 57.8386L55.0173 62.7485L49.3624 61.2332L49.056 55.3869L54.5215 53.2889Z" fill="#9AF5FC" fill-opacity="0.85"/>
<path d="M55.2951 102.336L52.5431 98.2559L56.6232 95.5039L59.3752 99.5839L55.2951 102.336Z" fill="#03A3F5" fill-opacity="0.65"/>
<path d="M92.0886 47.069L94.2127 42.9002L98.8339 43.6321L99.5658 48.2533L95.397 50.3774L92.0886 47.069Z" fill="#DCBCFA" fill-opacity="0.6"/>
<path d="M31.33 15.6359L29.1811 17.5708L30.3573 20.2124L27.853 18.7666L25.7041 20.7015L26.3053 17.8731L23.8011 16.4272L26.6769 16.125L27.2781 13.2965L28.4542 15.9382L31.33 15.6359Z" fill="#03A3F5" fill-opacity="0.75"/>
<path d="M9.89063 34.6359L7.74173 36.5708L8.91786 39.2124L6.41363 37.7666L4.26472 39.7015L4.86593 36.8731L2.36169 35.4272L5.23749 35.125L5.8387 32.2965L7.01483 34.9382L9.89063 34.6359Z" fill="#03A3F5" fill-opacity="0.75"/>
</g>
<defs>
<clipPath id="clip0_35_225">
<rect width="97" height="104" fill="white"/>
</clipPath>
</defs>
</svg>
